<?xml version="1.0" encoding="UTF-8"?>
<svg xmlns:xodm="http://www.corel.com/coreldraw/odm/2003" xmlns="http://www.w3.org/2000/svg" xmlns:xlink="http://www.w3.org/1999/xlink" version="1.1" id="Layer_1" x="0px" y="0px" viewBox="0 0 2500 2500" style="enable-background:new 0 0 2500 2500;" xml:space="preserve">
<style type="text/css">
	.st0{fill-rule:evenodd;clip-rule:evenodd;fill:#EB0029;}
	.st1{fill:#FFFFFF;}
</style>
<g id="Layer_x0020_1">
	<g id="_2085563363968">
		<path class="st0" d="M411.6,0h1676.8C2315.7,0,2500,186.5,2500,416.7v1666.7c0,230.1-184.3,416.7-411.6,416.7H411.6    C184.3,2500,0,2313.5,0,2083.3V416.7C0,186.5,184.3,0,411.6,0z"></path>
		<path class="st1" d="M1699.6,669.4L485.2,445.9l639.1,1608.3l890.6-1085L1699.6,669.4L1699.6,669.4z M1680.1,767.8l185.8,176.6    l-508.1,92L1680.1,767.8z M1247.4,1018L711.8,573.8l875.3,161.1L1247.4,1018L1247.4,1018z M1209.2,1096.6l-87.3,722L651.1,633.6    L1209.2,1096.6L1209.2,1096.6z M1290.1,1134.9l562.7-101.9l-645.4,786.3L1290.1,1134.9L1290.1,1134.9z"></path>
	</g>
</g>
</svg>
